<svg xmlns="http://www.w3.org/2000/svg" version="1.1" viewBox="-5.0 -10.0 110.0 135.0">
 <path d="m28.371 93.5c0.82812 0 1.5 0.67188 1.5 1.5s-0.67188 1.5-1.5 1.5h-8.0312c-2.4727 0-4.7227-1.0117-6.3516-2.6367-1.6289-1.6289-2.6367-3.875-2.6367-6.3516v-75.027c0-2.4727 1.0117-4.7227 2.6367-6.3477 1.6289-1.6289 3.875-2.6367 6.3516-2.6367h59.316c2.4688 0 4.7148 1.0117 6.3438 2.6406 1.6328 1.625 2.6406 3.8711 2.6406 6.3438v15.371c0 0.82812-0.67188 1.5-1.5 1.5s-1.5-0.67188-1.5-1.5v-15.371c0-1.6445-0.67578-3.1406-1.7617-4.2266-1.082-1.0859-2.5781-1.7617-4.2266-1.7617h-59.316c-1.6445 0-3.1445 0.67578-4.2266 1.7617-1.0859 1.0859-1.7617 2.582-1.7617 4.2266v75.027c0 1.6445 0.67578 3.1445 1.7617 4.2266 1.0859 1.0859 2.582 1.7617 4.2266 1.7617zm-3.1914-35.172h3.7422c2.1172 0 4.043 0.86719 5.4336 2.2578l0.085937 0.09375c1.3438 1.3867 2.1719 3.2773 2.1719 5.3438v14.887c0 2.1094-0.86719 4.0352-2.2578 5.4297-1.3906 1.3984-3.3203 2.2656-5.4336 2.2656h-3.7422c-2.1172 0-4.043-0.86719-5.4336-2.2578-1.3945-1.3945-2.2578-3.3203-2.2578-5.4336v-14.887c0-2.1172 0.86719-4.043 2.2578-5.4336s3.3164-2.2578 5.4336-2.2578zm3.7422 3h-3.7422c-1.2891 0-2.4648 0.53125-3.3125 1.3789-0.85156 0.85156-1.3789 2.0273-1.3789 3.3125v14.887c0 1.2891 0.52734 2.4609 1.3789 3.3125 0.84766 0.84766 2.0234 1.3789 3.3125 1.3789h3.7422c1.2891 0 2.4648-0.53125 3.3125-1.3789 0.85156-0.84766 1.3789-2.0234 1.3789-3.3125v-14.887c0-1.2578-0.5-2.4062-1.3086-3.25l-0.070313-0.066406c-0.84766-0.84766-2.0234-1.3789-3.3125-1.3789zm-6.7617-22h9.7773c1.2773 0 2.4453 0.52734 3.2969 1.3711l0.007813 0.007812c0.84375 0.84766 1.3672 2.0156 1.3672 3.293v1.918c0 1.2891-0.52734 2.457-1.3711 3.3047-0.84375 0.84375-2.0156 1.3711-3.3008 1.3711h-9.7773c-1.2852 0-2.4531-0.52734-3.3008-1.3711-0.85156-0.85156-1.3789-2.0234-1.3789-3.3047v-1.918c0-1.2852 0.52734-2.457 1.3711-3.3047l0.097657-0.089843c0.83984-0.79297 1.9688-1.2812 3.207-1.2812zm9.7773 3h-9.7773c-0.43359 0-0.83203 0.16797-1.1289 0.4375l-0.054688 0.058594c-0.30469 0.30469-0.49219 0.72266-0.49219 1.1836v1.918c0 0.46094 0.1875 0.88281 0.49219 1.1875 0.30078 0.30078 0.72266 0.49219 1.1875 0.49219h9.7773c0.45703 0 0.87891-0.19141 1.1797-0.49219 0.30469-0.30469 0.49219-0.72656 0.49219-1.1836v-1.918c0-0.46484-0.1875-0.88281-0.48828-1.1836-0.30469-0.30469-0.72656-0.49219-1.1875-0.49219zm36.117 35.004h9.7773c1.2891 0 2.457 0.52734 3.3047 1.3711l0.09375 0.10156c0.79297 0.83984 1.2812 1.9688 1.2812 3.2031v1.918c0 1.2812-0.52734 2.4492-1.3711 3.2969l-0.007813 0.007813c-0.84766 0.84375-2.0156 1.3672-3.293 1.3672h-9.7773c-1.2812 0-2.4531-0.52734-3.3008-1.375-0.84766-0.84375-1.375-2.0117-1.375-3.3008v-1.918c0-1.2852 0.52734-2.457 1.3711-3.3047 0.84375-0.84375 2.0156-1.3711 3.3047-1.3711zm9.7773 3h-9.7773c-0.45703 0-0.87891 0.19141-1.1836 0.49219-0.30469 0.30469-0.49219 0.72266-0.49219 1.1836v1.918c0 0.45703 0.19141 0.87891 0.49219 1.1836 0.30078 0.30469 0.72266 0.49219 1.1836 0.49219h9.7773c0.46484 0 0.88281-0.1875 1.1836-0.48828 0.30469-0.30469 0.49219-0.72656 0.49219-1.1875v-1.918c0-0.43359-0.16406-0.83203-0.43359-1.125l-0.058594-0.058593c-0.30469-0.30469-0.72266-0.49219-1.1836-0.49219zm-9.7773-41.004h9.7773c1.2812 0 2.4492 0.52734 3.2969 1.3711l0.007813 0.007812c0.84375 0.84766 1.3672 2.0156 1.3672 3.293v1.918c0 1.2812-0.52734 2.4531-1.3711 3.3008-0.84375 0.85156-2.0156 1.3789-3.3047 1.3789h-9.7773c-1.2852 0-2.457-0.52734-3.3047-1.3711l-0.089844-0.097656c-0.79297-0.83984-1.2812-1.9688-1.2812-3.207v-1.918c0-1.2891 0.52734-2.457 1.3711-3.3047l0.10156-0.09375c0.83984-0.79297 1.9688-1.2812 3.2031-1.2812zm9.7773 3h-9.7773c-0.43359 0-0.83203 0.16406-1.125 0.43359l-0.058594 0.058593c-0.30469 0.30469-0.49219 0.72266-0.49219 1.1836v1.918c0 0.43359 0.16797 0.83203 0.4375 1.1289l0.058594 0.054688c0.30469 0.30469 0.72266 0.49219 1.1836 0.49219h9.7773c0.45703 0 0.87891-0.19141 1.1836-0.49219 0.30469-0.30078 0.49219-0.71875 0.49219-1.1836v-1.918c0-0.46484-0.1875-0.88281-0.48828-1.1836-0.30469-0.30469-0.72656-0.49219-1.1875-0.49219zm-9.7773 16h9.7773c1.2852 0 2.457 0.52734 3.3047 1.3711l0.089843 0.097656c0.79297 0.83984 1.2812 1.9688 1.2812 3.207v1.918c0 1.2812-0.52734 2.4492-1.3711 3.2969l-0.007813 0.007812c-0.84766 0.84375-2.0156 1.3672-3.293 1.3672h-9.7773c-1.2812 0-2.4531-0.52734-3.3008-1.375-0.84766-0.84375-1.375-2.0117-1.375-3.3008v-1.918c0-1.2812 0.52734-2.4531 1.3711-3.3008 0.84375-0.85156 2.0156-1.3789 3.3047-1.3789zm9.7773 3h-9.7773c-0.45703 0-0.87891 0.19141-1.1836 0.49219-0.30469 0.30078-0.49219 0.71875-0.49219 1.1836v1.918c0 0.45703 0.19141 0.87891 0.49219 1.1836 0.30078 0.30469 0.72266 0.49219 1.1836 0.49219h9.7773c0.46484 0 0.88281-0.1875 1.1836-0.48828 0.30469-0.30469 0.49219-0.72656 0.49219-1.1875v-1.918c0-0.43359-0.16797-0.83203-0.4375-1.1289l-0.058593-0.054688c-0.30469-0.30469-0.72266-0.49219-1.1836-0.49219zm-32.934-3h9.7773c1.2852 0 2.457 0.52734 3.3047 1.3711l0.089843 0.097656c0.79297 0.83984 1.2812 1.9688 1.2812 3.207v1.918c0 1.2812-0.52734 2.4492-1.3711 3.2969l-0.007813 0.007812c-0.84766 0.84375-2.0156 1.3672-3.293 1.3672h-9.7773c-1.2812 0-2.4492-0.52734-3.2969-1.3711l-0.007813-0.007812c-0.84375-0.84766-1.3672-2.0156-1.3672-3.293v-1.918c0-1.2812 0.52734-2.4531 1.3711-3.3008 0.84375-0.85156 2.0156-1.3789 3.3047-1.3789zm9.7773 3h-9.7773c-0.45703 0-0.87891 0.19141-1.1836 0.49219-0.30469 0.30078-0.49219 0.71875-0.49219 1.1836v1.918c0 0.46484 0.1875 0.88281 0.48828 1.1836 0.30469 0.30469 0.72656 0.49219 1.1875 0.49219h9.7773c0.46484 0 0.88281-0.1875 1.1836-0.48828 0.30469-0.30469 0.49219-0.72656 0.49219-1.1875v-1.918c0-0.43359-0.16797-0.83203-0.4375-1.1289l-0.058593-0.054688c-0.30469-0.30469-0.72266-0.49219-1.1836-0.49219zm-9.5703 16h9.7773c1.2773 0 2.4453 0.52734 3.2969 1.3711l0.007812 0.007812c0.84375 0.84766 1.3672 2.0156 1.3672 3.293v1.918c0 1.2812-0.52734 2.4492-1.3711 3.2969l-0.007813 0.007812c-0.84766 0.84375-2.0156 1.3672-3.293 1.3672h-9.7773c-1.2812 0-2.4492-0.52734-3.2969-1.3711l-0.007813-0.007812c-0.84375-0.84766-1.3672-2.0156-1.3672-3.293v-1.918c0-1.2812 0.52734-2.4531 1.375-3.3008 0.84375-0.84766 2.0117-1.375 3.3008-1.375zm9.7773 3h-9.7773c-0.45703 0-0.87891 0.19141-1.1836 0.49219-0.30469 0.30078-0.49219 0.72266-0.49219 1.1836v1.918c0 0.46484 0.1875 0.88281 0.48828 1.1836 0.30469 0.30469 0.72656 0.49219 1.1875 0.49219h9.7773c0.46094 0 0.88281-0.1875 1.1797-0.48828 0.30469-0.30469 0.49219-0.72656 0.49219-1.1875v-1.918c0-0.46484-0.1875-0.88281-0.48828-1.1836-0.30469-0.30469-0.72656-0.49219-1.1875-0.49219zm-9.7773-41.004h9.7773c1.2773 0 2.4453 0.52734 3.2969 1.3711l0.007812 0.007813c0.84375 0.84766 1.3672 2.0156 1.3672 3.293v1.918c0 1.2891-0.52734 2.457-1.3711 3.3047-0.84375 0.84375-2.0156 1.3711-3.3008 1.3711h-9.7773c-1.2852 0-2.457-0.52734-3.3047-1.3711l-0.089843-0.097656c-0.79297-0.83984-1.2812-1.9688-1.2812-3.207v-1.918c0-1.2812 0.52734-2.4492 1.3711-3.2969l0.007813-0.007813c0.84766-0.84375 2.0156-1.3672 3.293-1.3672zm9.7773 3h-9.7773c-0.46484 0-0.88281 0.1875-1.1836 0.48828-0.30469 0.30469-0.49219 0.72656-0.49219 1.1875v1.918c0 0.43359 0.16797 0.83203 0.4375 1.1289l0.058593 0.054687c0.30469 0.30469 0.72266 0.49219 1.1836 0.49219h9.7773c0.45703 0 0.87891-0.19141 1.1797-0.49219 0.30469-0.30469 0.49219-0.72656 0.49219-1.1836v-1.918c0-0.46484-0.1875-0.88281-0.48828-1.1836-0.30469-0.30469-0.72656-0.49219-1.1875-0.49219zm14.066-24.668c1.5352 0 2.9297 0.62891 3.9336 1.6328 1.0078 1.0078 1.6328 2.4023 1.6328 3.9375v2.2891c0 1.5312-0.625 2.9258-1.6328 3.9336-1.0078 1.0078-2.4023 1.6328-3.9336 1.6328-1.5352 0-2.9297-0.625-3.9375-1.6328-1.0078-1.0078-1.6328-2.4023-1.6328-3.9336v-2.2891c0-1.5312 0.62891-2.9219 1.6328-3.9297 1.0078-1.0156 2.4023-1.6406 3.9375-1.6406zm0 3c-0.70703 0-1.3516 0.28906-1.8164 0.75781-0.46484 0.46094-0.75781 1.1055-0.75781 1.8164v2.2891c0 0.70703 0.28906 1.3477 0.75781 1.8125 0.46484 0.46484 1.1094 0.75781 1.8164 0.75781s1.3477-0.28906 1.8125-0.75781c0.46484-0.46484 0.75781-1.1094 0.75781-1.8125v-2.2891c0-0.70703-0.28906-1.3516-0.75781-1.8164-0.46484-0.46484-1.1094-0.75781-1.8125-0.75781zm-46.879-7.7344h55.844c0.82813 0 1.5 0.67188 1.5 1.5v19.898c0 0.82813-0.67187 1.5-1.5 1.5h-55.844c-0.82812 0-1.5-0.67187-1.5-1.5v-19.898c0-0.82812 0.67188-1.5 1.5-1.5zm54.344 3h-52.844v16.898h52.844zm9.2227 18.281c0-0.82812 0.67188-1.5 1.5-1.5s1.5 0.67188 1.5 1.5v0.23047c0 0.82812-0.67188 1.5-1.5 1.5s-1.5-0.67188-1.5-1.5zm0 6.5781c0-0.82812 0.67188-1.5 1.5-1.5s1.5 0.67188 1.5 1.5v46.727c0 2.4727-1.0117 4.7227-2.6367 6.3516l-0.089844 0.082031c-1.6211 1.5781-3.832 2.5547-6.2578 2.5547h-44.941c-0.82813 0-1.5-0.67188-1.5-1.5s0.67187-1.5 1.5-1.5h44.941c1.6133 0 3.082-0.64453 4.1602-1.6875l0.066406-0.074219c1.0859-1.0859 1.7617-2.582 1.7617-4.2266v-46.727z"/>
<text x="0.0" y="117.5" font-size="5.0" font-weight="bold" font-family="Arbeit Regular, Helvetica, Arial-Unicode, Arial, Sans-serif" fill="#000000">Created by Wartini</text><text x="0.0" y="122.5" font-size="5.0" font-weight="bold" font-family="Arbeit Regular, Helvetica, Arial-Unicode, Arial, Sans-serif" fill="#000000">from Noun Project</text></svg>